<mxfile host="app.diagrams.net" modified="2024-03-25T20:43:18.942Z" agent="Mozilla/5.0 (Windows NT 10.0; Win64; x64; rv:122.0) Gecko/20100101 Firefox/122.0" etag="gt6OtfodWlCoNRIH_e3O" version="24.1.0" type="github">
  <diagram name="Page-1" id="5QORuFMQOnyS7oN0RUPV">
    <mxGraphModel dx="398" dy="217" grid="1" gridSize="1" guides="1" tooltips="1" connect="1" arrows="1" fold="1" page="1" pageScale="1" pageWidth="4681" pageHeight="3300" background="#FFFFFF" math="0" shadow="0">
      <root>
        <mxCell id="0" />
        <mxCell id="1" parent="0" />
        <mxCell id="o2IL8OXkaZYKSykmPxrE-1" value="" style="endArrow=none;html=1;rounded=1;strokeWidth=10;fillColor=#fff2cc;strokeColor=#00CC00;curved=0;movable=0;resizable=0;rotatable=0;deletable=0;editable=0;locked=1;connectable=0;" parent="1" edge="1">
          <mxGeometry width="50" height="50" relative="1" as="geometry">
            <mxPoint x="272" y="655" as="sourcePoint" />
            <mxPoint x="335" y="622" as="targetPoint" />
            <Array as="points">
              <mxPoint x="310" y="655" />
              <mxPoint x="320" y="645" />
              <mxPoint x="335" y="630" />
            </Array>
          </mxGeometry>
        </mxCell>
        <mxCell id="o2IL8OXkaZYKSykmPxrE-3" value="" style="endArrow=none;html=1;rounded=1;strokeWidth=10;fillColor=#fff2cc;strokeColor=#00CC00;curved=0;movable=0;resizable=0;rotatable=0;deletable=0;editable=0;locked=1;connectable=0;" parent="1" edge="1">
          <mxGeometry width="50" height="50" relative="1" as="geometry">
            <mxPoint x="272" y="655.0000000000002" as="sourcePoint" />
            <mxPoint x="335" y="691" as="targetPoint" />
            <Array as="points">
              <mxPoint x="310" y="655.0000000000002" />
              <mxPoint x="320" y="665.0000000000002" />
              <mxPoint x="335" y="680.0000000000002" />
            </Array>
          </mxGeometry>
        </mxCell>
        <mxCell id="L3H9LTSSxsZUd-VBXjD--8" value="" style="endArrow=none;html=1;rounded=1;strokeWidth=10;fillColor=#fff2cc;strokeColor=#3399FF;curved=0;movable=0;resizable=0;rotatable=0;deletable=0;editable=0;locked=1;connectable=0;" parent="1" edge="1">
          <mxGeometry width="50" height="50" relative="1" as="geometry">
            <mxPoint x="350" y="644" as="sourcePoint" />
            <mxPoint x="258" y="575" as="targetPoint" />
            <Array as="points">
              <mxPoint x="350" y="620" />
              <mxPoint x="305" y="575" />
            </Array>
          </mxGeometry>
        </mxCell>
        <mxCell id="L3H9LTSSxsZUd-VBXjD--6" value="" style="endArrow=none;html=1;rounded=1;strokeWidth=10;fillColor=#fff2cc;strokeColor=#3399FF;curved=0;movable=0;resizable=0;rotatable=0;deletable=0;editable=0;locked=1;connectable=0;" parent="1" edge="1">
          <mxGeometry width="50" height="50" relative="1" as="geometry">
            <mxPoint x="279" y="575" as="sourcePoint" />
            <mxPoint x="178" y="575" as="targetPoint" />
            <Array as="points" />
          </mxGeometry>
        </mxCell>
        <mxCell id="L3H9LTSSxsZUd-VBXjD--5" value="" style="endArrow=none;html=1;rounded=1;strokeWidth=10;fillColor=#fff2cc;strokeColor=#66FF66;curved=0;movable=0;resizable=0;rotatable=0;deletable=0;editable=0;locked=1;connectable=0;" parent="1" edge="1">
          <mxGeometry width="50" height="50" relative="1" as="geometry">
            <mxPoint x="279" y="530" as="sourcePoint" />
            <mxPoint x="183" y="530" as="targetPoint" />
            <Array as="points" />
          </mxGeometry>
        </mxCell>
        <mxCell id="L3H9LTSSxsZUd-VBXjD--4" value="" style="endArrow=none;html=1;rounded=1;strokeWidth=10;fillColor=#fff2cc;strokeColor=#80FF00;curved=0;movable=0;resizable=0;rotatable=0;deletable=0;editable=0;locked=1;connectable=0;" parent="1" edge="1">
          <mxGeometry width="50" height="50" relative="1" as="geometry">
            <mxPoint x="278" y="545" as="sourcePoint" />
            <mxPoint x="182" y="545" as="targetPoint" />
            <Array as="points" />
          </mxGeometry>
        </mxCell>
        <mxCell id="L3H9LTSSxsZUd-VBXjD--1" value="" style="endArrow=none;html=1;rounded=1;strokeWidth=10;fillColor=#fff2cc;strokeColor=#004C99;curved=0;movable=0;resizable=0;rotatable=0;deletable=0;editable=0;locked=1;connectable=0;" parent="1" edge="1">
          <mxGeometry width="50" height="50" relative="1" as="geometry">
            <mxPoint x="415" y="560" as="sourcePoint" />
            <mxPoint x="179" y="560" as="targetPoint" />
            <Array as="points">
              <mxPoint x="309" y="560" />
            </Array>
          </mxGeometry>
        </mxCell>
        <mxCell id="_Lh3ZuoKEPCo0Oq_zLfu-7" value="" style="endArrow=none;html=1;rounded=1;strokeWidth=10;fillColor=#dae8fc;strokeColor=#66FF66;curved=0;movable=0;resizable=0;rotatable=0;deletable=0;editable=0;locked=1;connectable=0;" parent="1" edge="1">
          <mxGeometry width="50" height="50" relative="1" as="geometry">
            <mxPoint x="320" y="353" as="sourcePoint" />
            <mxPoint x="320" y="482" as="targetPoint" />
            <Array as="points" />
          </mxGeometry>
        </mxCell>
        <mxCell id="_Lh3ZuoKEPCo0Oq_zLfu-5" value="" style="endArrow=none;html=1;rounded=1;strokeWidth=10;fillColor=#dae8fc;strokeColor=#66FF66;curved=0;movable=0;resizable=0;rotatable=0;deletable=0;editable=0;locked=1;connectable=0;" parent="1" edge="1">
          <mxGeometry width="50" height="50" relative="1" as="geometry">
            <mxPoint x="177" y="331" as="sourcePoint" />
            <mxPoint x="320" y="428" as="targetPoint" />
            <Array as="points">
              <mxPoint x="308" y="331" />
              <mxPoint x="320" y="344" />
            </Array>
          </mxGeometry>
        </mxCell>
        <mxCell id="_Lh3ZuoKEPCo0Oq_zLfu-4" value="" style="endArrow=none;html=1;rounded=1;strokeWidth=10;fillColor=#ffe6cc;strokeColor=#d79b00;curved=0;movable=0;resizable=0;rotatable=0;deletable=0;editable=0;locked=1;connectable=0;" parent="1" edge="1">
          <mxGeometry width="50" height="50" relative="1" as="geometry">
            <mxPoint x="415" y="545" as="sourcePoint" />
            <mxPoint x="350" y="493" as="targetPoint" />
            <Array as="points">
              <mxPoint x="370" y="545" />
              <mxPoint x="350" y="525" />
            </Array>
          </mxGeometry>
        </mxCell>
        <mxCell id="F50utUTEcR48LrzfhvM4-18" value="" style="endArrow=none;html=1;rounded=1;strokeWidth=10;fillColor=#ffe6cc;strokeColor=#d79b00;curved=0;endFill=0;startArrow=none;startFill=0;movable=0;resizable=0;rotatable=0;deletable=0;editable=0;locked=1;connectable=0;" parent="1" edge="1">
          <mxGeometry width="50" height="50" relative="1" as="geometry">
            <mxPoint x="350" y="350" as="sourcePoint" />
            <mxPoint x="350" y="477" as="targetPoint" />
            <Array as="points" />
          </mxGeometry>
        </mxCell>
        <mxCell id="F50utUTEcR48LrzfhvM4-24" value="" style="endArrow=none;html=1;rounded=1;strokeWidth=10;fillColor=#d5e8d4;strokeColor=#80FF00;curved=0;movable=0;resizable=0;rotatable=0;deletable=0;editable=0;locked=1;connectable=0;" parent="1" edge="1">
          <mxGeometry width="50" height="50" relative="1" as="geometry">
            <mxPoint x="452" y="455" as="sourcePoint" />
            <mxPoint x="304" y="530" as="targetPoint" />
            <Array as="points">
              <mxPoint x="379.0000000000002" y="455" />
              <mxPoint x="339" y="495" />
            </Array>
          </mxGeometry>
        </mxCell>
        <mxCell id="F50utUTEcR48LrzfhvM4-27" value="" style="endArrow=none;html=1;rounded=1;strokeWidth=10;fillColor=#dae8fc;strokeColor=#00CC00;curved=0;movable=0;resizable=0;rotatable=0;deletable=0;editable=0;locked=1;connectable=0;" parent="1" edge="1">
          <mxGeometry width="50" height="50" relative="1" as="geometry">
            <mxPoint x="335" y="363" as="sourcePoint" />
            <mxPoint x="335" y="587" as="targetPoint" />
            <Array as="points" />
          </mxGeometry>
        </mxCell>
        <mxCell id="F50utUTEcR48LrzfhvM4-25" value="" style="endArrow=none;html=1;rounded=1;strokeWidth=10;fillColor=#d5e8d4;strokeColor=#82b366;curved=0;movable=0;resizable=0;rotatable=0;deletable=0;editable=0;locked=1;connectable=0;" parent="1" edge="1">
          <mxGeometry width="50" height="50" relative="1" as="geometry">
            <mxPoint x="454.0000000000002" y="470" as="sourcePoint" />
            <mxPoint x="320" y="590" as="targetPoint" />
            <Array as="points">
              <mxPoint x="382.0000000000002" y="470" />
              <mxPoint x="320" y="532" />
            </Array>
          </mxGeometry>
        </mxCell>
        <mxCell id="F50utUTEcR48LrzfhvM4-26" value="" style="endArrow=none;html=1;rounded=1;strokeWidth=10;fillColor=#dae8fc;strokeColor=#6c8ebf;curved=0;movable=0;resizable=0;rotatable=0;deletable=0;editable=0;locked=1;connectable=0;" parent="1" edge="1">
          <mxGeometry width="50" height="50" relative="1" as="geometry">
            <mxPoint x="175" y="345" as="sourcePoint" />
            <mxPoint x="281" y="345" as="targetPoint" />
            <Array as="points" />
          </mxGeometry>
        </mxCell>
        <mxCell id="F50utUTEcR48LrzfhvM4-14" value="" style="endArrow=none;html=1;rounded=0;strokeWidth=4;strokeColor=#FF2919;curved=1;" parent="1" edge="1">
          <mxGeometry width="50" height="50" relative="1" as="geometry">
            <mxPoint x="459" y="418" as="sourcePoint" />
            <mxPoint x="496" y="401" as="targetPoint" />
            <Array as="points">
              <mxPoint x="459" y="409" />
              <mxPoint x="459" y="401" />
              <mxPoint x="469" y="401" />
            </Array>
          </mxGeometry>
        </mxCell>
        <mxCell id="F50utUTEcR48LrzfhvM4-12" value="" style="endArrow=none;html=1;rounded=1;strokeWidth=10;fillColor=#fff2cc;strokeColor=#D65D00;curved=0;" parent="1" edge="1">
          <mxGeometry width="50" height="50" relative="1" as="geometry">
            <mxPoint x="423" y="162" as="sourcePoint" />
            <mxPoint x="423" y="117" as="targetPoint" />
            <Array as="points" />
          </mxGeometry>
        </mxCell>
        <mxCell id="F50utUTEcR48LrzfhvM4-9" value="" style="endArrow=none;html=1;rounded=1;strokeWidth=10;fillColor=#fff2cc;strokeColor=#D64C42;curved=0;" parent="1" edge="1">
          <mxGeometry width="50" height="50" relative="1" as="geometry">
            <mxPoint x="423" y="225" as="sourcePoint" />
            <mxPoint x="423" y="167" as="targetPoint" />
            <Array as="points" />
          </mxGeometry>
        </mxCell>
        <mxCell id="F50utUTEcR48LrzfhvM4-7" value="" style="endArrow=none;html=1;rounded=0;strokeWidth=4;strokeColor=#FF2919;curved=1;" parent="1" edge="1">
          <mxGeometry width="50" height="50" relative="1" as="geometry">
            <mxPoint x="496" y="274" as="sourcePoint" />
            <mxPoint x="432" y="232" as="targetPoint" />
            <Array as="points">
              <mxPoint x="467" y="274" />
              <mxPoint x="460" y="274" />
              <mxPoint x="460" y="265" />
              <mxPoint x="460" y="240" />
              <mxPoint x="460" y="232" />
              <mxPoint x="450" y="232" />
            </Array>
          </mxGeometry>
        </mxCell>
        <mxCell id="F50utUTEcR48LrzfhvM4-2" value="" style="endArrow=none;html=1;rounded=0;strokeWidth=4;strokeColor=#FF6208;movable=0;resizable=0;rotatable=0;deletable=0;editable=0;locked=1;connectable=0;" parent="1" edge="1">
          <mxGeometry width="50" height="50" relative="1" as="geometry">
            <mxPoint x="423" y="291" as="sourcePoint" />
            <mxPoint x="423" y="237" as="targetPoint" />
          </mxGeometry>
        </mxCell>
        <mxCell id="Hsu7Jg_zMOlTZOSdq1YD-21" value="" style="endArrow=none;html=1;rounded=1;strokeWidth=10;fillColor=#dae8fc;strokeColor=#00CC00;curved=0;movable=0;resizable=0;rotatable=0;deletable=0;editable=0;locked=1;connectable=0;" parent="1" edge="1">
          <mxGeometry width="50" height="50" relative="1" as="geometry">
            <mxPoint x="180" y="315" as="sourcePoint" />
            <mxPoint x="335" y="425" as="targetPoint" />
            <Array as="points">
              <mxPoint x="315" y="315" />
              <mxPoint x="335" y="335" />
            </Array>
          </mxGeometry>
        </mxCell>
        <mxCell id="Hsu7Jg_zMOlTZOSdq1YD-8" value="" style="endArrow=none;html=1;rounded=1;strokeWidth=10;fillColor=#ffe6cc;strokeColor=#d79b00;curved=0;movable=0;resizable=0;rotatable=0;deletable=0;editable=0;locked=1;connectable=0;" parent="1" edge="1">
          <mxGeometry width="50" height="50" relative="1" as="geometry">
            <mxPoint x="415" y="314" as="sourcePoint" />
            <mxPoint x="350" y="366" as="targetPoint" />
            <Array as="points">
              <mxPoint x="370" y="314" />
              <mxPoint x="350" y="334" />
            </Array>
          </mxGeometry>
        </mxCell>
        <mxCell id="Hsu7Jg_zMOlTZOSdq1YD-20" value="" style="endArrow=none;html=1;rounded=1;strokeWidth=10;fillColor=#dae8fc;strokeColor=#6c8ebf;curved=0;movable=0;resizable=0;rotatable=0;deletable=0;editable=0;locked=1;connectable=0;" parent="1" edge="1">
          <mxGeometry width="50" height="50" relative="1" as="geometry">
            <mxPoint x="265" y="345" as="sourcePoint" />
            <mxPoint x="457" y="440" as="targetPoint" />
            <Array as="points">
              <mxPoint x="292" y="345" />
              <mxPoint x="387" y="440" />
            </Array>
          </mxGeometry>
        </mxCell>
        <mxCell id="Hsu7Jg_zMOlTZOSdq1YD-7" value="" style="endArrow=none;html=1;rounded=1;strokeWidth=10;fillColor=#ffe6cc;strokeColor=#d79b00;curved=0;endFill=0;startArrow=none;startFill=0;movable=0;resizable=0;rotatable=0;deletable=0;editable=0;locked=1;connectable=0;" parent="1" edge="1">
          <mxGeometry width="50" height="50" relative="1" as="geometry">
            <mxPoint x="430" y="425" as="sourcePoint" />
            <mxPoint x="350" y="515" as="targetPoint" />
            <Array as="points">
              <mxPoint x="390" y="425" />
              <mxPoint x="350" y="465" />
            </Array>
          </mxGeometry>
        </mxCell>
        <mxCell id="Hsu7Jg_zMOlTZOSdq1YD-4" value="" style="endArrow=none;html=1;rounded=1;strokeWidth=10;fillColor=#ffe6cc;strokeColor=#d79b00;curved=0;movable=0;resizable=0;rotatable=0;deletable=0;editable=0;locked=1;connectable=0;" parent="1" edge="1">
          <mxGeometry width="50" height="50" relative="1" as="geometry">
            <mxPoint x="350" y="345" as="sourcePoint" />
            <mxPoint x="453" y="425" as="targetPoint" />
            <Array as="points">
              <mxPoint x="350" y="385" />
              <mxPoint x="390" y="425" />
            </Array>
          </mxGeometry>
        </mxCell>
        <mxCell id="Hsu7Jg_zMOlTZOSdq1YD-9" value="" style="endArrow=none;html=1;rounded=1;strokeWidth=10;fillColor=#fff2cc;strokeColor=#d6b656;curved=0;movable=0;resizable=0;rotatable=0;deletable=0;editable=0;locked=1;connectable=0;" parent="1" edge="1">
          <mxGeometry width="50" height="50" relative="1" as="geometry">
            <mxPoint x="416" y="300" as="sourcePoint" />
            <mxPoint x="180" y="300" as="targetPoint" />
            <Array as="points">
              <mxPoint x="310" y="300" />
            </Array>
          </mxGeometry>
        </mxCell>
        <mxCell id="Hsu7Jg_zMOlTZOSdq1YD-10" value="" style="rounded=1;whiteSpace=wrap;html=1;rotation=90;movable=0;resizable=0;rotatable=0;deletable=0;editable=0;locked=1;connectable=0;" parent="1" vertex="1">
          <mxGeometry x="145" y="315" width="65" height="16" as="geometry" />
        </mxCell>
        <mxCell id="Hsu7Jg_zMOlTZOSdq1YD-3" value="" style="rounded=1;whiteSpace=wrap;html=1;rotation=0;direction=south;movable=0;resizable=0;rotatable=0;deletable=0;editable=0;locked=1;connectable=0;" parent="1" vertex="1">
          <mxGeometry x="415" y="290" width="16" height="35" as="geometry" />
        </mxCell>
        <mxCell id="Hsu7Jg_zMOlTZOSdq1YD-13" value="" style="rounded=1;whiteSpace=wrap;html=1;rotation=0;flipH=0;flipV=0;direction=south;movable=0;resizable=0;rotatable=0;deletable=0;editable=0;locked=1;connectable=0;" parent="1" vertex="1">
          <mxGeometry x="410" y="535" width="16" height="35" as="geometry" />
        </mxCell>
        <mxCell id="Hsu7Jg_zMOlTZOSdq1YD-5" value="" style="rounded=1;whiteSpace=wrap;html=1;rotation=90;direction=west;flipH=0;flipV=0;movable=0;resizable=0;rotatable=0;deletable=0;editable=0;locked=1;connectable=0;" parent="1" vertex="1">
          <mxGeometry x="427" y="440" width="65" height="16" as="geometry" />
        </mxCell>
        <mxCell id="Hsu7Jg_zMOlTZOSdq1YD-17" value="" style="endArrow=none;html=1;rounded=1;strokeWidth=10;fillColor=#ffe6cc;strokeColor=#D77122;curved=0;" parent="1" edge="1">
          <mxGeometry width="511" height="636" relative="1" as="geometry">
            <mxPoint x="505" y="280" as="sourcePoint" />
            <mxPoint x="505" y="696" as="targetPoint" />
            <Array as="points" />
          </mxGeometry>
        </mxCell>
        <mxCell id="f8W1_nb45FIk_GAzonBj-2" value="" style="rounded=1;whiteSpace=wrap;html=1;rotation=90;" vertex="1" parent="Hsu7Jg_zMOlTZOSdq1YD-17">
          <mxGeometry x="497" y="614" width="16" height="26" as="geometry" />
        </mxCell>
        <mxCell id="Hsu7Jg_zMOlTZOSdq1YD-14" value="" style="rounded=1;whiteSpace=wrap;html=1;rotation=90;" parent="1" vertex="1">
          <mxGeometry x="497" y="388" width="16" height="26" as="geometry" />
        </mxCell>
        <mxCell id="Hsu7Jg_zMOlTZOSdq1YD-19" value="" style="rounded=1;whiteSpace=wrap;html=1;rotation=90;" parent="1" vertex="1">
          <mxGeometry x="497" y="261" width="16" height="26" as="geometry" />
        </mxCell>
        <mxCell id="F50utUTEcR48LrzfhvM4-6" value="" style="rounded=1;whiteSpace=wrap;html=1;rotation=90;" parent="1" vertex="1">
          <mxGeometry x="415" y="219" width="16" height="26" as="geometry" />
        </mxCell>
        <mxCell id="F50utUTEcR48LrzfhvM4-10" value="" style="rounded=1;whiteSpace=wrap;html=1;rotation=90;" parent="1" vertex="1">
          <mxGeometry x="415" y="105" width="16" height="26" as="geometry" />
        </mxCell>
        <mxCell id="F50utUTEcR48LrzfhvM4-13" value="" style="rounded=1;whiteSpace=wrap;html=1;rotation=90;" parent="1" vertex="1">
          <mxGeometry x="415" y="147" width="16" height="26" as="geometry" />
        </mxCell>
        <mxCell id="_Lh3ZuoKEPCo0Oq_zLfu-3" value="" style="endArrow=none;html=1;rounded=1;strokeWidth=10;fillColor=#d5e8d4;strokeColor=#80FF00;curved=0;movable=0;resizable=0;rotatable=0;deletable=0;editable=0;locked=1;connectable=0;" parent="1" edge="1">
          <mxGeometry width="50" height="50" relative="1" as="geometry">
            <mxPoint x="323" y="511" as="sourcePoint" />
            <mxPoint x="226" y="545" as="targetPoint" />
            <Array as="points">
              <mxPoint x="289" y="545" />
            </Array>
          </mxGeometry>
        </mxCell>
        <mxCell id="_Lh3ZuoKEPCo0Oq_zLfu-8" value="" style="endArrow=none;html=1;rounded=1;strokeColor=#66FF66;strokeWidth=10;curved=0;movable=0;resizable=0;rotatable=0;deletable=0;editable=0;locked=1;connectable=0;" parent="1" edge="1">
          <mxGeometry width="50" height="50" relative="1" as="geometry">
            <mxPoint x="253" y="530" as="sourcePoint" />
            <mxPoint x="320" y="467" as="targetPoint" />
            <Array as="points">
              <mxPoint x="285" y="530" />
              <mxPoint x="320" y="495" />
            </Array>
          </mxGeometry>
        </mxCell>
        <mxCell id="L3H9LTSSxsZUd-VBXjD--2" value="" style="rounded=1;whiteSpace=wrap;html=1;rotation=90;movable=0;resizable=0;rotatable=0;deletable=0;editable=0;locked=1;connectable=0;" parent="1" vertex="1">
          <mxGeometry x="145" y="545" width="65" height="16" as="geometry" />
        </mxCell>
        <mxCell id="L3H9LTSSxsZUd-VBXjD--7" value="" style="endArrow=none;html=1;rounded=1;strokeWidth=10;fillColor=#fff2cc;strokeColor=#3399FF;curved=0;movable=0;resizable=0;rotatable=0;deletable=0;editable=0;locked=1;connectable=0;" parent="1" edge="1">
          <mxGeometry width="50" height="50" relative="1" as="geometry">
            <mxPoint x="350" y="695" as="sourcePoint" />
            <mxPoint x="350" y="629" as="targetPoint" />
            <Array as="points" />
          </mxGeometry>
        </mxCell>
        <mxCell id="L3H9LTSSxsZUd-VBXjD--9" value="" style="endArrow=none;html=1;rounded=1;strokeWidth=10;fillColor=#fff2cc;strokeColor=#82B366;curved=0;movable=0;resizable=0;rotatable=0;deletable=0;editable=0;locked=1;connectable=0;" parent="1" edge="1">
          <mxGeometry width="50" height="50" relative="1" as="geometry">
            <mxPoint x="320" y="694" as="sourcePoint" />
            <mxPoint x="320" y="589" as="targetPoint" />
            <Array as="points" />
          </mxGeometry>
        </mxCell>
        <mxCell id="L3H9LTSSxsZUd-VBXjD--10" value="" style="endArrow=none;html=1;rounded=1;strokeWidth=10;fillColor=#fff2cc;strokeColor=#00CC00;curved=0;movable=0;resizable=0;rotatable=0;deletable=0;editable=0;locked=1;connectable=0;" parent="1" edge="1">
          <mxGeometry width="50" height="50" relative="1" as="geometry">
            <mxPoint x="335" y="695" as="sourcePoint" />
            <mxPoint x="335" y="583" as="targetPoint" />
            <Array as="points" />
          </mxGeometry>
        </mxCell>
        <mxCell id="o2IL8OXkaZYKSykmPxrE-4" value="" style="rounded=1;whiteSpace=wrap;html=1;rotation=90;direction=south;movable=0;resizable=0;rotatable=0;deletable=0;editable=0;locked=1;connectable=0;" parent="1" vertex="1">
          <mxGeometry x="262" y="647" width="20" height="16" as="geometry" />
        </mxCell>
        <mxCell id="o2IL8OXkaZYKSykmPxrE-5" value="" style="rounded=1;whiteSpace=wrap;html=1;rotation=90;movable=0;resizable=0;rotatable=0;deletable=0;editable=0;locked=1;connectable=0;direction=south;" parent="1" vertex="1">
          <mxGeometry x="327" y="677" width="16" height="50" as="geometry" />
        </mxCell>
        <mxCell id="f8W1_nb45FIk_GAzonBj-3" value="" style="endArrow=none;html=1;rounded=1;strokeWidth=10;fillColor=#ffe6cc;strokeColor=#D77122;curved=0;" edge="1" parent="1">
          <mxGeometry width="511" height="636" relative="1" as="geometry">
            <mxPoint x="489" y="689" as="sourcePoint" />
            <mxPoint x="489" y="770" as="targetPoint" />
            <Array as="points" />
          </mxGeometry>
        </mxCell>
        <mxCell id="f8W1_nb45FIk_GAzonBj-4" value="" style="rounded=1;whiteSpace=wrap;html=1;rotation=90;" vertex="1" parent="f8W1_nb45FIk_GAzonBj-3">
          <mxGeometry x="497" y="614" width="16" height="26" as="geometry" />
        </mxCell>
      </root>
    </mxGraphModel>
  </diagram>
</mxfile>
